<?xml version="1.0" encoding="UTF-8"?>
<!DOCTYPE svg PUBLIC "-//W3C//DTD SVG 1.1//EN" "http://www.w3.org/Graphics/SVG/1.1/DTD/svg11.dtd">
<svg xmlns="http://www.w3.org/2000/svg" version="1.1" width="500px" height="500px" style="shape-rendering:geometricPrecision; text-rendering:geometricPrecision; image-rendering:optimizeQuality; fill-rule:evenodd; clip-rule:evenodd" xmlns:xlink="http://www.w3.org/1999/xlink">
<g><path style="opacity:1" fill="#000000" d="M -0.5,-0.5 C 166.167,-0.5 332.833,-0.5 499.5,-0.5C 499.5,166.167 499.5,332.833 499.5,499.5C 332.833,499.5 166.167,499.5 -0.5,499.5C -0.5,332.833 -0.5,166.167 -0.5,-0.5 Z"/></g>
<g><path style="opacity:1" fill="#5f18eb" d="M 229.5,121.5 C 230.263,123.368 231.263,125.035 232.5,126.5C 236.25,135.164 238.917,144.164 240.5,153.5C 240.649,154.552 240.483,155.552 240,156.5C 215.99,145.744 191.824,135.41 167.5,125.5C 168.343,123.827 169.676,122.66 171.5,122C 190.83,121.5 210.164,121.333 229.5,121.5 Z"/></g>
<g><path style="opacity:1" fill="#773bee" d="M 229.5,121.5 C 236.5,121.5 243.5,121.5 250.5,121.5C 269.501,146.006 288.334,170.672 307,195.5C 307.671,196.252 308.504,196.586 309.5,196.5C 308.699,198.042 308.366,199.708 308.5,201.5C 307.175,206.48 305.841,211.48 304.5,216.5C 282.203,189.015 260.37,161.015 239,132.5C 236.763,130.353 234.763,128.02 233,125.5C 232.601,125.728 232.435,126.062 232.5,126.5C 231.263,125.035 230.263,123.368 229.5,121.5 Z"/></g>
<g><path style="opacity:1" fill="#6b2aec" d="M 250.5,121.5 C 254.833,121.5 259.167,121.5 263.5,121.5C 278.784,141.957 294.284,162.29 310,182.5C 310.278,181.584 310.778,180.918 311.5,180.5C 311.425,183.206 311.092,185.873 310.5,188.5C 310.425,191.206 310.092,193.873 309.5,196.5C 308.504,196.586 307.671,196.252 307,195.5C 288.334,170.672 269.501,146.006 250.5,121.5 Z"/></g>
<g><path style="opacity:1" fill="#601beb" d="M 263.5,121.5 C 284.836,121.333 306.169,121.5 327.5,122C 331.143,123.805 333.476,126.638 334.5,130.5C 334.5,145.833 334.5,161.167 334.5,176.5C 325.883,167.951 317.716,158.951 310,149.5C 311.075,159.759 311.575,170.092 311.5,180.5C 310.778,180.918 310.278,181.584 310,182.5C 294.284,162.29 278.784,141.957 263.5,121.5 Z"/></g>
<g><path style="opacity:1" fill="#6a29ec" d="M 167.5,125.5 C 191.824,135.41 215.99,145.744 240,156.5C 240.483,155.552 240.649,154.552 240.5,153.5C 241.167,153.5 241.5,153.833 241.5,154.5C 242.2,158.798 242.533,163.131 242.5,167.5C 242.5,169.167 242.5,170.833 242.5,172.5C 216.287,160.894 189.954,149.561 163.5,138.5C 163.335,135.482 163.502,132.482 164,129.5C 164.66,127.676 165.827,126.343 167.5,125.5 Z"/></g>
<g><path style="opacity:1" fill="#7538ed" d="M 163.5,138.5 C 189.954,149.561 216.287,160.894 242.5,172.5C 242.5,175.833 242.5,179.167 242.5,182.5C 218.75,172.794 195.083,162.794 171.5,152.5C 170.417,153.365 170.251,154.365 171,155.5C 173.273,159.525 175.439,163.525 177.5,167.5C 178.321,171.127 179.654,174.46 181.5,177.5C 181.833,179.5 182.167,181.5 182.5,183.5C 182.631,184.239 182.464,184.906 182,185.5C 176.026,181.433 169.859,177.766 163.5,174.5C 163.5,162.5 163.5,150.5 163.5,138.5 Z"/></g>
<g><path style="opacity:1" fill="#824cef" d="M 304.5,216.5 C 303.559,218.05 302.893,219.716 302.5,221.5C 301.5,223.5 300.5,225.5 299.5,227.5C 298.504,227.586 297.671,227.252 297,226.5C 278.722,202.251 260.222,178.251 241.5,154.5C 241.5,153.833 241.167,153.5 240.5,153.5C 238.917,144.164 236.25,135.164 232.5,126.5C 232.435,126.062 232.601,125.728 233,125.5C 234.763,128.02 236.763,130.353 239,132.5C 260.37,161.015 282.203,189.015 304.5,216.5 Z"/></g>
<g><path style="opacity:1" fill="#7e46ef" d="M 242.5,172.5 C 242.5,170.833 242.5,169.167 242.5,167.5C 243.461,169.265 243.795,171.265 243.5,173.5C 243.746,179.559 243.413,185.559 242.5,191.5C 242.5,192.167 242.5,192.833 242.5,193.5C 241.85,193.804 241.183,194.137 240.5,194.5C 219.558,185.299 198.558,176.299 177.5,167.5C 175.439,163.525 173.273,159.525 171,155.5C 170.251,154.365 170.417,153.365 171.5,152.5C 195.083,162.794 218.75,172.794 242.5,182.5C 242.5,179.167 242.5,175.833 242.5,172.5 Z"/></g>
<g><path style="opacity:1" fill="#8b58f0" d="M 241.5,154.5 C 260.222,178.251 278.722,202.251 297,226.5C 297.671,227.252 298.504,227.586 299.5,227.5C 298.833,229.167 298.167,230.833 297.5,232.5C 296.248,234.001 295.248,235.668 294.5,237.5C 293.504,237.586 292.671,237.252 292,236.5C 276.297,215.071 260.131,194.071 243.5,173.5C 243.795,171.265 243.461,169.265 242.5,167.5C 242.533,163.131 242.2,158.798 241.5,154.5 Z"/></g>
<g><path style="opacity:1" fill="#8752f0" d="M 177.5,167.5 C 198.558,176.299 219.558,185.299 240.5,194.5C 241.183,194.137 241.85,193.804 242.5,193.5C 242.01,196.655 241.344,199.655 240.5,202.5C 220.724,194.446 201.057,186.113 181.5,177.5C 179.654,174.46 178.321,171.127 177.5,167.5 Z"/></g>
<g><path style="opacity:1" fill="#773bee" d="M 334.5,176.5 C 334.5,187.833 334.5,199.167 334.5,210.5C 326.866,202.697 319.366,194.697 312,186.5C 311.722,187.416 311.222,188.082 310.5,188.5C 311.092,185.873 311.425,183.206 311.5,180.5C 311.575,170.092 311.075,159.759 310,149.5C 317.716,158.951 325.883,167.951 334.5,176.5 Z"/></g>
<g><path style="opacity:1" fill="#8f5ef1" d="M 181.5,177.5 C 201.057,186.113 220.724,194.446 240.5,202.5C 240.371,204.216 240.038,205.883 239.5,207.5C 239.634,209.292 239.301,210.958 238.5,212.5C 220.669,204.445 202.669,196.778 184.5,189.5C 183.952,187.374 183.285,185.374 182.5,183.5C 182.167,181.5 181.833,179.5 181.5,177.5 Z"/></g>
<g><path style="opacity:1" fill="#824bef" d="M 163.5,174.5 C 169.859,177.766 176.026,181.433 182,185.5C 182.464,184.906 182.631,184.239 182.5,183.5C 183.285,185.374 183.952,187.374 184.5,189.5C 185.219,191.764 185.552,194.097 185.5,196.5C 185.785,198.288 185.452,199.955 184.5,201.5C 177.304,197.406 170.304,193.073 163.5,188.5C 163.5,183.833 163.5,179.167 163.5,174.5 Z"/></g>
<g><path style="opacity:1" fill="#9465f1" d="M 243.5,173.5 C 260.131,194.071 276.297,215.071 292,236.5C 292.671,237.252 293.504,237.586 294.5,237.5C 293.248,239.001 292.248,240.668 291.5,242.5C 290.396,244.389 289.063,246.055 287.5,247.5C 272.869,229.597 258.703,211.263 245,192.5C 244.329,191.748 243.496,191.414 242.5,191.5C 243.413,185.559 243.746,179.559 243.5,173.5 Z"/></g>
<g><path style="opacity:1" fill="#986bf2" d="M 184.5,189.5 C 202.669,196.778 220.669,204.445 238.5,212.5C 237.766,213.708 237.433,215.041 237.5,216.5C 237.107,218.284 236.441,219.95 235.5,221.5C 219.046,214.773 202.713,207.773 186.5,200.5C 186.768,198.901 186.434,197.568 185.5,196.5C 185.552,194.097 185.219,191.764 184.5,189.5 Z"/></g>
<g><path style="opacity:1" fill="#824cef" d="M 334.5,210.5 C 334.5,216.5 334.5,222.5 334.5,228.5C 325.833,219.5 317.167,210.5 308.5,201.5C 308.366,199.708 308.699,198.042 309.5,196.5C 310.092,193.873 310.425,191.206 310.5,188.5C 311.222,188.082 311.722,187.416 312,186.5C 319.366,194.697 326.866,202.697 334.5,210.5 Z"/></g>
<g><path style="opacity:1" fill="#9c71f2" d="M 242.5,191.5 C 243.496,191.414 244.329,191.748 245,192.5C 258.703,211.263 272.869,229.597 287.5,247.5C 286.752,249.332 285.752,250.999 284.5,252.5C 283.272,253.306 282.272,254.306 281.5,255.5C 269.778,241.084 258.278,226.417 247,211.5C 244.816,208.829 242.316,207.496 239.5,207.5C 240.038,205.883 240.371,204.216 240.5,202.5C 241.344,199.655 242.01,196.655 242.5,193.5C 242.5,192.833 242.5,192.167 242.5,191.5 Z"/></g>
<g><path style="opacity:1" fill="#9f75f3" d="M 186.5,200.5 C 202.713,207.773 219.046,214.773 235.5,221.5C 234.499,224.172 233.499,226.838 232.5,229.5C 217.37,223.899 202.37,217.899 187.5,211.5C 187.448,207.802 187.114,204.135 186.5,200.5 Z"/></g>
<g><path style="opacity:1" fill="#905ff1" d="M 163.5,188.5 C 170.304,193.073 177.304,197.406 184.5,201.5C 185.452,199.955 185.785,198.288 185.5,196.5C 186.434,197.568 186.768,198.901 186.5,200.5C 187.114,204.135 187.448,207.802 187.5,211.5C 187.5,214.167 187.5,216.833 187.5,219.5C 179.5,214.833 171.5,210.167 163.5,205.5C 163.5,199.833 163.5,194.167 163.5,188.5 Z"/></g>
<g><path style="opacity:1" fill="#a881f4" d="M 187.5,211.5 C 202.37,217.899 217.37,223.899 232.5,229.5C 230.833,232.833 229.167,236.167 227.5,239.5C 214.335,233.445 201.002,227.778 187.5,222.5C 187.5,221.5 187.5,220.5 187.5,219.5C 187.5,216.833 187.5,214.167 187.5,211.5 Z"/></g>
<g><path style="opacity:1" fill="#a57df3" d="M 281.5,255.5 C 279.167,258.5 276.5,261.167 273.5,263.5C 261.731,247.615 249.731,231.948 237.5,216.5C 237.433,215.041 237.766,213.708 238.5,212.5C 239.301,210.958 239.634,209.292 239.5,207.5C 242.316,207.496 244.816,208.829 247,211.5C 258.278,226.417 269.778,241.084 281.5,255.5 Z"/></g>
<g><path style="opacity:1" fill="#8e5df1" d="M 308.5,201.5 C 317.167,210.5 325.833,219.5 334.5,228.5C 334.666,236.84 334.5,245.173 334,253.5C 323.964,243.132 314.297,232.466 305,221.5C 304.23,220.402 303.397,220.402 302.5,221.5C 302.893,219.716 303.559,218.05 304.5,216.5C 305.841,211.48 307.175,206.48 308.5,201.5 Z"/></g>
<g><path style="opacity:1" fill="#9e74f3" d="M 163.5,205.5 C 171.5,210.167 179.5,214.833 187.5,219.5C 187.5,220.5 187.5,221.5 187.5,222.5C 187.605,226.548 187.272,230.548 186.5,234.5C 178.718,230.775 171.052,226.775 163.5,222.5C 163.5,216.833 163.5,211.167 163.5,205.5 Z"/></g>
<g><path style="opacity:1" fill="#ad8af5" d="M 237.5,216.5 C 249.731,231.948 261.731,247.615 273.5,263.5C 272.833,264.5 272.167,265.5 271.5,266.5C 269.833,267.833 268.167,269.167 266.5,270.5C 255.815,257.973 245.649,244.973 236,231.5C 235.184,230.177 234.017,229.511 232.5,229.5C 233.499,226.838 234.499,224.172 235.5,221.5C 236.441,219.95 237.107,218.284 237.5,216.5 Z"/></g>
<g><path style="opacity:1" fill="#b290f5" d="M 187.5,222.5 C 201.002,227.778 214.335,233.445 227.5,239.5C 226.176,242.526 224.176,244.859 221.5,246.5C 210.389,242.112 199.389,237.445 188.5,232.5C 187.818,233.243 187.151,233.909 186.5,234.5C 187.272,230.548 187.605,226.548 187.5,222.5 Z"/></g>
<g><path style="opacity:1" fill="#8d62e4" d="M 334.5,130.5 C 335.833,181.5 335.833,232.5 334.5,283.5C 334.666,279.486 334.499,275.486 334,271.5C 322.281,258.045 310.114,245.045 297.5,232.5C 298.167,230.833 298.833,229.167 299.5,227.5C 300.5,225.5 301.5,223.5 302.5,221.5C 303.397,220.402 304.23,220.402 305,221.5C 314.297,232.466 323.964,243.132 334,253.5C 334.5,245.173 334.666,236.84 334.5,228.5C 334.5,222.5 334.5,216.5 334.5,210.5C 334.5,199.167 334.5,187.833 334.5,176.5C 334.5,161.167 334.5,145.833 334.5,130.5 Z"/></g>
<g><path style="opacity:1" fill="#b696f6" d="M 232.5,229.5 C 234.017,229.511 235.184,230.177 236,231.5C 245.649,244.973 255.815,257.973 266.5,270.5C 265.306,271.272 264.306,272.272 263.5,273.5C 261.999,274.752 260.332,275.752 258.5,276.5C 256.629,276.141 255.129,275.141 254,273.5C 245.388,261.917 236.555,250.583 227.5,239.5C 229.167,236.167 230.833,232.833 232.5,229.5 Z"/></g>
<g><path style="opacity:1" fill="#af8cf5" d="M 163.5,222.5 C 171.052,226.775 178.718,230.775 186.5,234.5C 185.735,237.096 185.401,239.763 185.5,242.5C 184.677,245.461 184.01,248.461 183.5,251.5C 182.833,251.5 182.5,251.833 182.5,252.5C 176.33,248.581 169.997,244.914 163.5,241.5C 163.5,235.167 163.5,228.833 163.5,222.5 Z"/></g>
<g><path style="opacity:1" fill="#a177f3" d="M 297.5,232.5 C 310.114,245.045 322.281,258.045 334,271.5C 334.499,275.486 334.666,279.486 334.5,283.5C 334.443,284.609 334.11,285.609 333.5,286.5C 319.184,272.183 305.184,257.517 291.5,242.5C 292.248,240.668 293.248,239.001 294.5,237.5C 295.248,235.668 296.248,234.001 297.5,232.5 Z"/></g>
<g><path style="opacity:1" fill="#bda0f7" d="M 227.5,239.5 C 236.555,250.583 245.388,261.917 254,273.5C 255.129,275.141 256.629,276.141 258.5,276.5C 256.833,277.833 255.167,279.167 253.5,280.5C 251.833,281.167 250.167,281.833 248.5,282.5C 240.054,271.787 231.721,260.954 223.5,250C 222.365,249.251 221.365,249.417 220.5,250.5C 219.396,252.389 218.063,254.055 216.5,255.5C 206.26,250.878 195.927,246.545 185.5,242.5C 185.401,239.763 185.735,237.096 186.5,234.5C 187.151,233.909 187.818,233.243 188.5,232.5C 199.389,237.445 210.389,242.112 221.5,246.5C 224.176,244.859 226.176,242.526 227.5,239.5 Z"/></g>
<g><path style="opacity:1" fill="#a983f4" d="M 291.5,242.5 C 305.184,257.517 319.184,272.183 333.5,286.5C 330.449,291.204 326.116,293.204 320.5,292.5C 308.864,278.862 296.864,265.529 284.5,252.5C 285.752,250.999 286.752,249.332 287.5,247.5C 289.063,246.055 290.396,244.389 291.5,242.5 Z"/></g>
<g><path style="opacity:1" fill="#c6aef8" d="M 185.5,242.5 C 195.927,246.545 206.26,250.878 216.5,255.5C 218.063,254.055 219.396,252.389 220.5,250.5C 221.365,249.417 222.365,249.251 223.5,250C 231.721,260.954 240.054,271.787 248.5,282.5C 245.632,284.912 242.299,286.579 238.5,287.5C 231.382,277.876 224.049,268.376 216.5,259C 214.186,259.59 212.019,260.757 210,262.5C 201.102,258.925 192.269,255.258 183.5,251.5C 184.01,248.461 184.677,245.461 185.5,242.5 Z"/></g>
<g><path style="opacity:1" fill="#c2a7f7" d="M 163.5,241.5 C 169.997,244.914 176.33,248.581 182.5,252.5C 181.5,255.833 180.5,259.167 179.5,262.5C 178.695,264.915 177.695,267.249 176.5,269.5C 175.825,271.518 174.659,273.184 173,274.5C 169.874,272.688 166.708,271.021 163.5,269.5C 163.5,260.167 163.5,250.833 163.5,241.5 Z"/></g>
<g><path style="opacity:1" fill="#b392f5" d="M 284.5,252.5 C 296.864,265.529 308.864,278.862 320.5,292.5C 312.5,292.5 304.5,292.5 296.5,292.5C 292.545,287.373 288.378,282.373 284,277.5C 280.258,273.253 276.092,269.586 271.5,266.5C 272.167,265.5 272.833,264.5 273.5,263.5C 276.5,261.167 279.167,258.5 281.5,255.5C 282.272,254.306 283.272,253.306 284.5,252.5 Z"/></g>
<g><path style="opacity:1" fill="#cfbaf9" d="M 183.5,251.5 C 192.269,255.258 201.102,258.925 210,262.5C 212.019,260.757 214.186,259.59 216.5,259C 224.049,268.376 231.382,277.876 238.5,287.5C 235.668,290.082 232.335,291.249 228.5,291C 222.341,282.349 215.674,274.182 208.5,266.5C 206.215,267.614 204.048,268.947 202,270.5C 194.819,267.885 187.819,264.885 181,261.5C 180.617,262.056 180.117,262.389 179.5,262.5C 180.5,259.167 181.5,255.833 182.5,252.5C 182.5,251.833 182.833,251.5 183.5,251.5 Z"/></g>
<g><path style="opacity:1" fill="#bfa3f7" d="M 271.5,266.5 C 276.092,269.586 280.258,273.253 284,277.5C 288.378,282.373 292.545,287.373 296.5,292.5C 291.5,292.5 286.5,292.5 281.5,292.5C 276.126,285.462 270.126,279.129 263.5,273.5C 264.306,272.272 265.306,271.272 266.5,270.5C 268.167,269.167 269.833,267.833 271.5,266.5 Z"/></g>
<g><path style="opacity:1" fill="#d7c6fa" d="M 238.5,287.5 C 242.299,286.579 245.632,284.912 248.5,282.5C 250.167,281.833 251.833,281.167 253.5,280.5C 257.785,284.119 261.785,288.119 265.5,292.5C 248.833,292.5 232.167,292.5 215.5,292.5C 211.207,286.094 206.54,279.927 201.5,274C 199.027,274.227 196.694,275.06 194.5,276.5C 188.484,274.157 182.484,271.823 176.5,269.5C 177.695,267.249 178.695,264.915 179.5,262.5C 180.117,262.389 180.617,262.056 181,261.5C 187.819,264.885 194.819,267.885 202,270.5C 204.048,268.947 206.215,267.614 208.5,266.5C 215.674,274.182 222.341,282.349 228.5,291C 232.335,291.249 235.668,290.082 238.5,287.5 Z"/></g>
<g><path style="opacity:1" fill="#ddcefa" d="M 163.5,269.5 C 166.708,271.021 169.874,272.688 173,274.5C 174.659,273.184 175.825,271.518 176.5,269.5C 182.484,271.823 188.484,274.157 194.5,276.5C 196.694,275.06 199.027,274.227 201.5,274C 206.54,279.927 211.207,286.094 215.5,292.5C 211.5,292.5 207.5,292.5 203.5,292.5C 200.202,287.868 196.536,283.534 192.5,279.5C 190.292,281.102 187.959,282.436 185.5,283.5C 181.219,282.128 177.053,280.462 173,278.5C 170.332,281.183 168.165,284.183 166.5,287.5C 165.034,286.653 164.2,285.32 164,283.5C 163.501,278.845 163.334,274.179 163.5,269.5 Z"/></g>
<g><path style="opacity:1" fill="#c7aff8" d="M 263.5,273.5 C 270.126,279.129 276.126,285.462 281.5,292.5C 276.167,292.5 270.833,292.5 265.5,292.5C 261.785,288.119 257.785,284.119 253.5,280.5C 255.167,279.167 256.833,277.833 258.5,276.5C 260.332,275.752 261.999,274.752 263.5,273.5 Z"/></g>
<g><path style="opacity:1" fill="#e7ddfa" d="M 203.5,292.5 C 192.828,292.667 182.161,292.5 171.5,292C 169.34,291.004 167.673,289.504 166.5,287.5C 168.165,284.183 170.332,281.183 173,278.5C 177.053,280.462 181.219,282.128 185.5,283.5C 187.959,282.436 190.292,281.102 192.5,279.5C 196.536,283.534 200.202,287.868 203.5,292.5 Z"/></g>
<g><path style="opacity:1" fill="#e0e0e0" d="M 191.5,322.5 C 196.747,322.64 197.747,324.806 194.5,329C 189.382,328.824 188.382,326.658 191.5,322.5 Z"/></g>
<g><path style="opacity:1" fill="#e0e0e0" d="M 277.5,322.5 C 282.747,322.64 283.747,324.806 280.5,329C 275.382,328.824 274.382,326.658 277.5,322.5 Z"/></g>
<g><path style="opacity:1" fill="#f8f8f8" d="M 263.5,323.5 C 265.167,323.5 266.833,323.5 268.5,323.5C 268.5,336.833 268.5,350.167 268.5,363.5C 266.833,363.5 265.167,363.5 263.5,363.5C 263.5,350.167 263.5,336.833 263.5,323.5 Z"/></g>
<g><path style="opacity:1" fill="#f5f5f5" d="M 172.5,347.5 C 169.5,347.5 166.5,347.5 163.5,347.5C 163.5,352.833 163.5,358.167 163.5,363.5C 162.167,363.5 160.833,363.5 159.5,363.5C 159.5,350.833 159.5,338.167 159.5,325.5C 164.844,325.334 170.177,325.501 175.5,326C 183.546,328.927 186.046,334.427 183,342.5C 180.45,346.192 176.95,347.858 172.5,347.5 Z"/></g>
<g><path style="opacity:1" fill="#959595" d="M 173.5,330.5 C 170.5,330.5 167.5,330.5 164.5,330.5C 164.5,334.833 164.5,339.167 164.5,343.5C 163.514,339.03 163.181,334.363 163.5,329.5C 167.042,329.187 170.375,329.521 173.5,330.5 Z"/></g>
<g><path style="opacity:1" fill="#080808" d="M 173.5,330.5 C 179.567,332.064 181.067,335.73 178,341.5C 177.25,342.126 176.416,342.626 175.5,343C 171.848,343.499 168.182,343.665 164.5,343.5C 164.5,339.167 164.5,334.833 164.5,330.5C 167.5,330.5 170.5,330.5 173.5,330.5 Z"/></g>
<g><path style="opacity:1" fill="#f2f2f2" d="M 237.5,333.5 C 250.535,331.874 256.868,337.541 256.5,350.5C 248.833,350.5 241.167,350.5 233.5,350.5C 234.377,358.287 238.711,361.12 246.5,359C 248.5,358.333 249.833,357 250.5,355C 252.134,354.506 253.801,354.34 255.5,354.5C 253.564,360.752 249.23,364.086 242.5,364.5C 228.775,361.05 224.608,352.717 230,339.5C 232.114,336.879 234.614,334.879 237.5,333.5 Z"/></g>
<g><path style="opacity:1" fill="#9f9f9f" d="M 307.5,338.5 C 307.5,337.167 307.5,335.833 307.5,334.5C 301.167,334.5 294.833,334.5 288.5,334.5C 288.5,335.5 288.5,336.5 288.5,337.5C 287.566,336.432 287.232,335.099 287.5,333.5C 294.5,333.5 301.5,333.5 308.5,333.5C 308.784,335.415 308.451,337.081 307.5,338.5 Z"/></g>
<g><path style="opacity:1" fill="#f2f2f2" d="M 322.5,333.5 C 335.535,331.874 341.868,337.541 341.5,350.5C 333.833,350.5 326.167,350.5 318.5,350.5C 319.377,358.287 323.711,361.12 331.5,359C 333.5,358.333 334.833,357 335.5,355C 337.134,354.506 338.801,354.34 340.5,354.5C 338.564,360.752 334.23,364.086 327.5,364.5C 313.775,361.05 309.608,352.717 315,339.5C 317.114,336.879 319.614,334.879 322.5,333.5 Z"/></g>
<g><path style="opacity:1" fill="#f7f7f7" d="M 190.5,333.5 C 192.167,333.5 193.833,333.5 195.5,333.5C 195.5,343.5 195.5,353.5 195.5,363.5C 193.833,363.5 192.167,363.5 190.5,363.5C 190.5,353.5 190.5,343.5 190.5,333.5 Z"/></g>
<g><path style="opacity:1" fill="#ececec" d="M 200.5,333.5 C 202.604,333.201 204.604,333.534 206.5,334.5C 208.864,337.699 211.03,341.032 213,344.5C 215.167,341 217.333,337.5 219.5,334C 221.259,333.202 222.926,333.369 224.5,334.5C 221.5,339.167 218.5,343.833 215.5,348.5C 218.5,353.167 221.5,357.833 224.5,362.5C 222.5,363.833 220.5,363.833 218.5,362.5C 216.748,359.328 214.748,356.328 212.5,353.5C 210.265,356.291 208.265,359.291 206.5,362.5C 204.579,363.641 202.579,363.808 200.5,363C 203.756,358.487 206.756,353.82 209.5,349C 206.357,343.876 203.357,338.71 200.5,333.5 Z"/></g>
<g><path style="opacity:1" fill="#f7f7f7" d="M 276.5,333.5 C 278.167,333.5 279.833,333.5 281.5,333.5C 281.5,343.5 281.5,353.5 281.5,363.5C 279.833,363.5 278.167,363.5 276.5,363.5C 276.5,353.5 276.5,343.5 276.5,333.5 Z"/></g>
<g><path style="opacity:1" fill="#f2f2f2" d="M 307.5,338.5 C 303.193,345.149 298.859,351.816 294.5,358.5C 299.12,359.493 303.786,359.827 308.5,359.5C 308.5,360.833 308.5,362.167 308.5,363.5C 301.5,363.5 294.5,363.5 287.5,363.5C 287.34,361.801 287.506,360.134 288,358.5C 292.748,352.006 297.248,345.339 301.5,338.5C 297.217,337.508 292.884,337.174 288.5,337.5C 288.5,336.5 288.5,335.5 288.5,334.5C 294.833,334.5 301.167,334.5 307.5,334.5C 307.5,335.833 307.5,337.167 307.5,338.5 Z"/></g>
<g><path style="opacity:1" fill="#090909" d="M 238.5,337.5 C 245.932,336.38 250.266,339.38 251.5,346.5C 245.5,346.5 239.5,346.5 233.5,346.5C 233.861,342.778 235.528,339.778 238.5,337.5 Z"/></g>
<g><path style="opacity:1" fill="#090909" d="M 323.5,337.5 C 330.932,336.38 335.266,339.38 336.5,346.5C 330.5,346.5 324.5,346.5 318.5,346.5C 318.861,342.778 320.528,339.778 323.5,337.5 Z"/></g>
<g><path style="opacity:1" fill="#8d8d8d" d="M 172.5,347.5 C 170.052,348.473 167.385,348.806 164.5,348.5C 164.821,353.695 164.487,358.695 163.5,363.5C 163.5,358.167 163.5,352.833 163.5,347.5C 166.5,347.5 169.5,347.5 172.5,347.5 Z"/></g>
</svg>
